<?xml version="1.0" encoding="UTF-8" standalone="no"?>
<!-- Created with Inkscape (http://www.inkscape.org/) -->

<svg
   xmlns:dc="http://purl.org/dc/elements/1.1/"
   xmlns:cc="http://creativecommons.org/ns#"
   xmlns:rdf="http://www.w3.org/1999/02/22-rdf-syntax-ns#"
   xmlns:svg="http://www.w3.org/2000/svg"
   xmlns="http://www.w3.org/2000/svg"
   xmlns:sodipodi="http://sodipodi.sourceforge.net/DTD/sodipodi-0.dtd"
   xmlns:inkscape="http://www.inkscape.org/namespaces/inkscape"
   width="216"
   height="216"
   viewBox="0 0 57.149999 57.150002"
   version="1.1"
   id="svg1454"
   inkscape:version="0.92.4 5da689c313, 2019-01-14"
   sodipodi:docname="icon-settings.svg">
  <defs
     id="defs1448" />
  <sodipodi:namedview
     id="base"
     pagecolor="#ffffff"
     bordercolor="#666666"
     borderopacity="1.0"
     inkscape:pageopacity="0.0"
     inkscape:pageshadow="2"
     inkscape:zoom="2.2129823"
     inkscape:cx="40.412156"
     inkscape:cy="124.06396"
     inkscape:document-units="mm"
     inkscape:current-layer="layer1"
     showgrid="false"
     units="px"
     inkscape:window-width="1871"
     inkscape:window-height="1024"
     inkscape:window-x="1969"
     inkscape:window-y="28"
     inkscape:window-maximized="1"
     inkscape:snap-object-midpoints="true" />
  <metadata
     id="metadata1451">
    <rdf:RDF>
      <cc:Work
         rdf:about="">
        <dc:format>image/svg+xml</dc:format>
        <dc:type
           rdf:resource="http://purl.org/dc/dcmitype/StillImage" />
        <dc:title />
      </cc:Work>
    </rdf:RDF>
  </metadata>
  <g
     inkscape:label="Layer 1"
     inkscape:groupmode="layer"
     id="layer1"
     transform="translate(0,-239.84998)">
    <circle
       style="fill:#ffffff;fill-opacity:1;stroke:#000000;stroke-width:2.11699986;stroke-linecap:butt;stroke-linejoin:miter;stroke-miterlimit:3;stroke-dasharray:none;stroke-opacity:1"
       id="path1999"
       cx="28.575003"
       cy="268.42493"
       r="27.5165" />
    <circle
       style="fill:none;fill-opacity:0.43902438;stroke:#000000;stroke-width:2.1170001;stroke-linecap:butt;stroke-linejoin:miter;stroke-miterlimit:3;stroke-dasharray:none;stroke-opacity:1"
       id="path1999-9"
       cx="28.575003"
       cy="268.42493"
       r="23.289427" />
    <path
       style="fill:#000000;stroke:none;stroke-width:0.03527778"
       inkscape:connector-curvature="0"
       d="m 26.944234,249.1214 c 0,0.0121 -0.08758,0.52548 -0.196295,1.13852 -0.10872,0.61607 -0.286897,1.63379 -0.395617,2.26496 -0.111733,0.63117 -0.205357,1.1506 -0.208378,1.15664 -0.0029,0.003 -0.184211,0.0423 -0.401651,0.0815 -0.703645,0.1359 -1.410312,0.32615 -2.086777,0.56473 -0.332195,0.11475 -0.344278,0.11778 -0.395617,0.0634 -0.02719,-0.0302 -0.679486,-0.80934 -1.449575,-1.73042 -0.770081,-0.92109 -1.419367,-1.70023 -1.449567,-1.73043 -0.04829,-0.0514 -0.114762,-0.0151 -1.437492,0.74894 -0.761026,0.44091 -1.38918,0.81237 -1.395215,0.82747 -0.0057,0.0151 0.347292,1.00262 0.782165,2.1955 l 0.791227,2.1653 -0.120803,0.10871 c -0.87276,0.78821 -1.00564,0.91807 -1.854247,1.85727 l -0.108713,0.11778 -2.126041,-0.77613 c -1.168719,-0.42883 -2.156241,-0.77914 -2.192483,-0.78216 -0.0574,-0.006 -0.175156,0.18422 -0.869739,1.38011 -0.764047,1.32274 -0.80029,1.38917 -0.74895,1.4375 0.03021,0.0302 0.815386,0.68854 1.745527,1.46467 0.930148,0.77612 1.709291,1.42843 1.73043,1.44655 0.03021,0.0302 0.01507,0.10569 -0.08154,0.38353 -0.256696,0.75197 -0.425811,1.3771 -0.55869,2.07772 -0.04226,0.22348 -0.08154,0.40769 -0.08455,0.41072 -0.0057,0.003 -0.525476,0.0966 -1.156643,0.20837 -0.631168,0.10872 -1.64889,0.2869 -2.264954,0.39561 -0.6130501,0.10872 -1.1264426,0.1963 -1.1385186,0.1963 -0.012054,0 -0.024181,0.73385 -0.024181,1.63077 0,0.89693 0.012054,1.63077 0.024181,1.63077 0.012054,0 0.5254685,0.0876 1.1385186,0.1963 0.616064,0.10872 1.633786,0.28689 2.264954,0.39561 0.631167,0.11174 1.150602,0.20535 1.156643,0.20837 0.0029,0.003 0.04226,0.18724 0.08455,0.41072 0.132879,0.70062 0.301994,1.32576 0.55869,2.07772 0.09664,0.27783 0.111741,0.35333 0.08154,0.38353 -0.02117,0.0181 -0.800282,0.67043 -1.73043,1.44656 -0.930141,0.77612 -1.715326,1.43447 -1.745527,1.46467 -0.05138,0.0483 -0.01507,0.11475 0.74895,1.43749 0.694583,1.1959 0.812358,1.38615 0.869739,1.38012 0.03624,-0.003 1.023764,-0.35333 2.192483,-0.78217 l 2.126041,-0.77613 0.108713,0.11779 c 0.848607,0.9392 0.981487,1.06905 1.854247,1.85726 l 0.120803,0.10872 -0.791227,2.16529 c -0.434873,1.19288 -0.788206,2.1804 -0.782165,2.19551 0.0057,0.0151 0.634189,0.38655 1.395215,0.82746 1.32273,0.76405 1.389173,0.80029 1.437492,0.74895 0.03021,-0.0302 0.679486,-0.80934 1.449567,-1.73043 0.770089,-0.92109 1.422395,-1.70023 1.449575,-1.73043 0.0513,-0.0544 0.06343,-0.0514 0.395617,0.0634 0.676465,0.23857 1.383132,0.42883 2.086777,0.56472 0.21744,0.0393 0.398638,0.0785 0.401651,0.0815 0.0029,0.006 0.09664,0.52547 0.208378,1.15665 0.10872,0.63117 0.286897,1.64888 0.395617,2.26495 0.108713,0.61305 0.196295,1.12644 0.196295,1.13852 0,0.012 0.730825,0.0242 1.624731,0.0242 h 1.624731 l 0.157031,-0.88182 c 0.08456,-0.48621 0.265759,-1.51601 0.401659,-2.28912 0.132872,-0.7731 0.247634,-1.40729 0.253668,-1.41333 0.0029,-0.003 0.208378,-0.0483 0.456019,-0.0966 0.76706,-0.151 1.26837,-0.28388 2.032417,-0.54661 0.277834,-0.0966 0.353333,-0.11174 0.383533,-0.0815 0.01808,0.0212 0.670431,0.80028 1.446554,1.73042 0.776123,0.93015 1.434471,1.71534 1.464672,1.74554 0.04829,0.0514 0.114762,0.0151 1.437492,-0.74895 0.761026,-0.44091 1.38918,-0.81237 1.395214,-0.82746 0.0057,-0.0212 -0.492246,-1.40428 -1.40427,-3.89573 l -0.172135,-0.46507 0.196295,-0.16912 c 0.655327,-0.57379 1.159657,-1.0751 1.721367,-1.72137 l 0.166094,-0.19328 0.55869,0.20234 c 2.138124,0.78518 3.77493,1.3771 3.796069,1.3771 0.01514,0 0.283876,-0.44394 0.597953,-0.98753 0.311056,-0.54661 0.673445,-1.17174 0.803303,-1.39521 0.19026,-0.32615 0.229516,-0.41373 0.199316,-0.44091 -0.02117,-0.0212 -0.806324,-0.67949 -1.745527,-1.46468 -0.939204,-0.78518 -1.724389,-1.44353 -1.745527,-1.46165 -0.03021,-0.0302 -0.01507,-0.1057 0.08154,-0.38353 0.253675,-0.74291 0.45299,-1.48279 0.576807,-2.1502 0.03623,-0.19328 0.07852,-0.35333 0.0906,-0.35333 0.01205,0 0.68552,-0.11477 1.497886,-0.2567 0.812365,-0.14193 1.824046,-0.32011 2.246843,-0.39259 0.42279,-0.0755 0.779144,-0.1359 0.79122,-0.1359 0.01514,0 0.02418,-0.73385 0.02418,-1.63077 0,-0.89692 -0.01205,-1.63077 -0.02418,-1.63077 -0.01205,0 -0.519427,-0.0876 -1.123415,-0.19328 -0.607008,-0.1057 -1.627751,-0.28689 -2.271002,-0.39863 l -1.168712,-0.20536 -0.06343,-0.34729 c -0.123817,-0.66137 -0.323132,-1.40427 -0.576808,-2.14416 -0.09664,-0.27784 -0.11174,-0.35333 -0.08154,-0.38353 0.02117,-0.0181 0.806324,-0.67647 1.745527,-1.46166 0.939204,-0.78518 1.724389,-1.44353 1.745527,-1.46467 0.03021,-0.0272 -0.009,-0.11475 -0.199315,-0.44091 -0.129859,-0.22348 -0.492247,-0.8486 -0.803303,-1.39521 -0.314077,-0.54359 -0.582849,-0.98752 -0.597953,-0.98752 -0.02117,0 -1.657946,0.5919 -3.796069,1.37709 l -0.55869,0.20233 -0.166094,-0.19327 c -0.561711,-0.64627 -1.066041,-1.14758 -1.721368,-1.72137 l -0.196294,-0.16911 0.172135,-0.46508 c 0.912023,-2.49145 1.410312,-3.87458 1.40427,-3.89572 -0.0057,-0.0151 -0.634188,-0.38656 -1.395215,-0.82747 -1.322729,-0.76404 -1.389173,-0.80028 -1.437491,-0.74894 -0.03021,0.0302 -0.688549,0.81538 -1.464672,1.74552 -0.776123,0.93014 -1.428436,1.70929 -1.446554,1.73043 -0.03021,0.0302 -0.105699,0.0151 -0.383534,-0.0815 -0.764047,-0.26274 -1.265356,-0.39561 -2.032416,-0.54661 -0.247641,-0.0483 -0.452998,-0.0936 -0.456019,-0.0966 -0.0057,-0.006 -0.120796,-0.64022 -0.253668,-1.41333 -0.135901,-0.7731 -0.317098,-1.80291 -0.401659,-2.28912 l -0.157031,-0.88182 h -1.624731 c -0.893906,0 -1.624731,0.0121 -1.624731,0.0242 z"
       id="path5080"
       sodipodi:nodetypes="sccccccsccccccccccccsccccccsssccccccsccccccccccccsccccccsscccccccscccccccccscccscccsscsssccccccscccscccccccccscccccccss" />
    <circle
       style="fill:#f7f7f7;fill-opacity:1;stroke:none;stroke-width:2.11666656;stroke-linecap:butt;stroke-linejoin:miter;stroke-miterlimit:4;stroke-dasharray:none;stroke-opacity:1"
       id="path5093"
       cx="28.574999"
       cy="268.4249"
       r="7.5231533" />
  </g>
</svg>
